<?xml version="1.0" encoding="UTF-8" standalone="no"?>
<svg
   width="85"
   height="63"
   viewBox="0 0 85 63"
   fill="none"
   version="1.1"
   id="svg468"
   sodipodi:docname="logo-white.svg"
   inkscape:version="1.2.2 (732a01da63, 2022-12-09, custom)"
   xmlns:inkscape="http://www.inkscape.org/namespaces/inkscape"
   xmlns:sodipodi="http://sodipodi.sourceforge.net/DTD/sodipodi-0.dtd"
   xmlns="http://www.w3.org/2000/svg"
   xmlns:svg="http://www.w3.org/2000/svg">
  <defs
     id="defs472">
    <clipPath
       clipPathUnits="userSpaceOnUse"
       id="clipPath51">
      <path
         d="m 2341.5,2237.26 c -7.82,-10.4 -16.38,-20.35 -25.86,-29.73 l -246.49,-246.49 c -52.09,-52.1 -120.48,-81.92 -193.65,-84.77 -3.87,-0.19 -7.73,-0.28 -11.69,-0.28 -77.59,0 -150.49,30.19 -205.35,85.05 l -97.56,97.56 c 32.49,61.86 73.82,130.33 122.78,202.95 l 137.7,-137.6 c 5.52,-5.52 11.87,-9.75 18.68,-12.61 7.46,-3.31 15.56,-4.97 23.56,-4.97 0.1,0 0.1,0 0.19,0 1.38,0 2.67,0.09 4.05,0.19 0.92,0.09 1.84,0.18 2.76,0.27 1.75,0.28 3.4,0.55 4.97,0.83 0.74,0.19 1.47,0.28 2.12,0.46 0.46,0.09 0.92,0.19 1.28,0.28 0.93,0.18 1.94,0.46 2.86,0.83 0.37,0.09 0.64,0.18 0.92,0.27 0.55,0.19 0.92,0.28 0.92,0.28 0.37,0.18 0.83,0.27 1.2,0.46 1.01,0.37 1.93,0.73 2.85,1.19 1.1,0.47 2.21,0.93 3.31,1.57 0.65,0.28 1.38,0.64 2.03,1.1 1.19,0.65 2.39,1.29 3.59,2.12 3.4,2.21 6.62,4.79 9.57,7.73 l 246.49,246.49 c 2.39,2.39 4.51,4.97 6.26,7.64 l 49.24,-7.64 z"
         id="path49" />
    </clipPath>
    <linearGradient
       x1="0"
       y1="0"
       x2="1"
       y2="0"
       gradientUnits="userSpaceOnUse"
       gradientTransform="matrix(-201.184,-258.665,-258.665,201.184,2060.05,2310.39)"
       spreadMethod="pad"
       id="linearGradient59">
      <stop
         style="stop-opacity:1;stop-color:#4223ed"
         offset="0"
         id="stop53" />
      <stop
         style="stop-opacity:1;stop-color:#825ef6"
         offset="0.994413"
         id="stop55" />
      <stop
         style="stop-opacity:1;stop-color:#825ef6"
         offset="1"
         id="stop57" />
    </linearGradient>
    <clipPath
       clipPathUnits="userSpaceOnUse"
       id="clipPath73">
      <path
         d="m 3136.28,2719.37 c -15.37,0 -30.74,-5.8 -42.43,-17.58 l -116.34,-116.34 c -8.47,11.41 -17.95,22.46 -28.35,32.86 l -132.35,132.35 114.13,114.04 c 54.86,54.86 127.75,85.14 205.34,85.14 35.99,0 71.06,-6.53 103.73,-19.14 112.57,-110.36 -103.73,-211.33 -103.73,-211.33 z"
         id="path71" />
    </clipPath>
    <linearGradient
       x1="0"
       y1="0"
       x2="1"
       y2="0"
       gradientUnits="userSpaceOnUse"
       gradientTransform="matrix(-100.774,-105.573,-105.573,100.774,3025.63,2769.2)"
       spreadMethod="pad"
       id="linearGradient81">
      <stop
         style="stop-opacity:1;stop-color:#42d3d8"
         offset="0"
         id="stop75" />
      <stop
         style="stop-opacity:1;stop-color:#11afb7"
         offset="0.994413"
         id="stop77" />
      <stop
         style="stop-opacity:1;stop-color:#11afb7"
         offset="1"
         id="stop79" />
    </linearGradient>
  </defs>
  <sodipodi:namedview
     id="namedview470"
     pagecolor="#ffffff"
     bordercolor="#000000"
     borderopacity="0.25"
     inkscape:showpageshadow="2"
     inkscape:pageopacity="0.0"
     inkscape:pagecheckerboard="0"
     inkscape:deskcolor="#d1d1d1"
     showgrid="false"
     inkscape:zoom="4.7701648"
     inkscape:cx="40.145364"
     inkscape:cy="15.408273"
     inkscape:window-width="1920"
     inkscape:window-height="1016"
     inkscape:window-x="0"
     inkscape:window-y="27"
     inkscape:window-maximized="1"
     inkscape:current-layer="svg468" />
  <mask
     id="path-2-inside-1"
     fill="white">
    <path
       d="M42.5 28.9252C16.5458 30.2312 0 14 0 14C0 14 26 22.9738 42.5 22.9738C59 22.9738 85 14 85 14C85 14 68.4542 27.6193 42.5 28.9252Z"
       id="path463" />
  </mask>
  <g
     id="g668"
     transform="matrix(1.1405733,0,0,1.1405733,-13.80138,-3.836299)"
     style="fill:#ffffff">
    <path
       d="m 48.815416,5.9660424 c -4.228384,0 -7.668636,3.4402561 -7.668636,7.6686416 0,4.228386 3.440252,7.668638 7.668636,7.668638 4.228386,0 7.668638,-3.440252 7.668638,-7.668638 0,-4.2283855 -3.440252,-7.6686416 -7.668638,-7.6686416 z m 0,3.7184361 c 2.181507,0 3.950206,1.7686895 3.950206,3.9502055 0,2.181507 -1.768699,3.950197 -3.950206,3.950197 -2.181516,0 -3.950204,-1.76869 -3.950204,-3.950197 0,-2.181516 1.768688,-3.9502055 3.950204,-3.9502055 v 0"
       style="fill:#ffffff;fill-opacity:1;fill-rule:nonzero;stroke:none;stroke-width:0.0307384"
       id="path39" />
    <path
       d="m 32.201263,15.487291 c -0.72666,1.364786 -2.231617,2.253741 -3.920388,2.07423 -1.912546,-0.202871 -3.425493,-1.818486 -3.51402,-3.739641 -0.104515,-2.266348 1.70199,-4.136478 3.945283,-4.136478 1.180361,0 2.240217,0.518248 2.963802,1.340502 0.496735,0.564664 1.279649,0.781371 1.982017,0.51241 0.06091,-0.02335 0.121724,-0.0467 0.182587,-0.07005 1.12565,-0.431264 1.510489,-1.8492271 0.733422,-2.7707671 -1.587645,-1.8836544 -4.06455,-2.9945435 -6.774456,-2.6791666 -3.505419,0.4075921 -6.319214,3.2370704 -6.708985,6.7446387 -0.512715,4.61508 3.104287,8.539155 7.621613,8.539155 2.932757,0 5.486817,-1.655269 6.774761,-4.081463 0.639058,-1.204331 -0.266504,-2.65611 -1.629757,-2.666557 -0.01351,-3.23e-4 -0.02675,-3.23e-4 -0.04026,-3.23e-4 -0.668256,-0.0052 -1.301467,0.34366 -1.615615,0.933531"
       style="fill:#ffffff;fill-opacity:1;fill-rule:nonzero;stroke:none;stroke-width:0.0307384"
       id="path41" />
    <path
       d="m 38.688007,40.795522 -7.57673,7.576732 c -0.09068,0.09036 -0.189654,0.169672 -0.294169,0.237602 -0.03686,0.02553 -0.0738,0.04522 -0.110354,0.06517 -0.01995,0.01411 -0.04243,0.02518 -0.06239,0.03381 -0.03381,0.01969 -0.06796,0.03381 -0.101745,0.04827 -0.02832,0.01411 -0.05655,0.02518 -0.0876,0.03659 -0.01133,0.0061 -0.02553,0.0087 -0.03686,0.01411 0,0 -0.01141,0.0026 -0.02832,0.0087 -0.0087,0.0026 -0.0169,0.0052 -0.02832,0.0087 -0.02832,0.01141 -0.05934,0.01996 -0.08791,0.02553 -0.01107,0.0026 -0.02518,0.0061 -0.03938,0.0087 -0.01995,0.0052 -0.04243,0.0087 -0.06517,0.01411 -0.05106,0.01411 -0.101745,0.02273 -0.15277,0.02553 -0.02832,0.0026 -0.05655,0.0052 -0.08487,0.0087 -0.04243,0.0035 -0.08208,0.0061 -0.124495,0.0061 -0.0026,0 -0.0026,0 -0.0061,0 -0.245906,0 -0.494888,-0.05106 -0.724195,-0.152769 -0.209336,-0.08792 -0.404522,-0.217937 -0.574196,-0.387611 l -4.232689,-4.229627 -3.346812,-3.347108 c -0.718662,-0.721433 -0.718662,-1.889804 0,-2.608475 l 7.579502,-7.579492 c 0.359326,-0.359336 0.831777,-0.540389 1.304229,-0.540389 0.47245,0 0.94214,0.181053 1.304237,0.540389 l 7.576731,7.579492 c 0.647657,0.644896 0.712824,1.652194 0.192423,2.373626 -0.05376,0.08208 -0.118962,0.161379 -0.192423,0.234849 z m 5.007605,-7.616384 -7.576731,-7.579502 c -1.686,-1.686009 -3.929607,-2.613999 -6.311842,-2.613999 -2.384997,0 -4.625833,0.92799 -6.312147,2.613999 l -7.579493,7.579502 c -3.479907,3.480212 -3.479907,9.144083 0,12.62399 l 4.580646,4.577883 2.998847,2.998847 c 1.686314,1.686314 3.92715,2.614304 6.312147,2.614304 0.121725,0 0.240382,-0.0026 0.359335,-0.0087 2.24914,-0.08761 4.351339,-1.004231 5.952507,-2.605705 l 7.576731,-7.576729 c 0.291398,-0.288331 0.554521,-0.594175 0.794894,-0.913857 2.659499,-3.494039 2.393613,-8.518557 -0.794894,-11.710132"
       style="fill:#ffffff;fill-opacity:1;fill-rule:nonzero;stroke:none;stroke-width:0.0307384"
       id="path43" />
    <g
       id="g45"
       transform="matrix(0.03073849,0,0,-0.03073849,-27.483659,113.65926)"
       style="fill:#ffffff">
      <g
         id="g47"
         clip-path="url(#clipPath51)"
         style="fill:#ffffff">
        <path
           d="m 2341.5,2237.26 c -7.82,-10.4 -16.38,-20.35 -25.86,-29.73 l -246.49,-246.49 c -52.09,-52.1 -120.48,-81.92 -193.65,-84.77 -3.87,-0.19 -7.73,-0.28 -11.69,-0.28 -77.59,0 -150.49,30.19 -205.35,85.05 l -97.56,97.56 c 32.49,61.86 73.82,130.33 122.78,202.95 l 137.7,-137.6 c 5.52,-5.52 11.87,-9.75 18.68,-12.61 7.46,-3.31 15.56,-4.97 23.56,-4.97 0.1,0 0.1,0 0.19,0 1.38,0 2.67,0.09 4.05,0.19 0.92,0.09 1.84,0.18 2.76,0.27 1.75,0.28 3.4,0.55 4.97,0.83 0.74,0.19 1.47,0.28 2.12,0.46 0.46,0.09 0.92,0.19 1.28,0.28 0.93,0.18 1.94,0.46 2.86,0.83 0.37,0.09 0.64,0.18 0.92,0.27 0.55,0.19 0.92,0.28 0.92,0.28 0.37,0.18 0.83,0.27 1.2,0.46 1.01,0.37 1.93,0.73 2.85,1.19 1.1,0.47 2.21,0.93 3.31,1.57 0.65,0.28 1.38,0.64 2.03,1.1 1.19,0.65 2.39,1.29 3.59,2.12 3.4,2.21 6.62,4.79 9.57,7.73 l 246.49,246.49 c 2.39,2.39 4.51,4.97 6.26,7.64 l 49.24,-7.64 133.27,-133.18"
           style="fill:#ffffff;fill-opacity:1;fill-rule:nonzero;stroke:none"
           id="path61" />
      </g>
    </g>
    <path
       d="M 63.168755,33.177596 55.589558,25.60117 c -1.686306,-1.686001 -3.926836,-2.615228 -6.311833,-2.615228 -2.385006,0 -4.62584,0.929227 -6.311841,2.615228 l -3.422425,3.424882 4.151543,4.151544 c 0.291398,0.288331 0.554826,0.593565 0.796123,0.912323 l 3.482981,-3.480212 c 0.360555,-0.360564 0.832083,-0.540693 1.303619,-0.540693 0.471214,0 0.945512,0.180129 1.306076,0.540693 l 7.576425,7.576426 c 0.72112,0.721119 0.72112,1.888567 0,2.609694 l -7.576425,7.576427 c -0.360564,0.360553 -0.834862,0.540685 -1.306076,0.540685 -0.471536,0 -0.943064,-0.180132 -1.303619,-0.540685 l -3.48021,-3.480526 c -0.0026,0 -0.0026,-0.0026 -0.0026,-0.0026 l -4.096214,-4.093137 c -0.371621,-0.374392 -0.551751,-0.86806 -0.535152,-1.356186 -0.327366,-0.346728 -0.65996,-0.693455 -0.984556,-1.031582 -0.05533,-0.07772 -0.119267,-0.152465 -0.188425,-0.221927 l -0.937521,-0.934455 c -0.0332,-0.03355 -0.0664,-0.06945 -0.09991,-0.102669 -1.710903,-1.741643 -3.056015,-3.05909 -3.056015,-3.05909 h -0.0026 c -1.178514,1.544916 -1.816334,3.425187 -1.816334,5.399519 0,1.977408 0.63782,3.854917 1.819105,5.399528 0.241296,0.319062 0.507487,0.623992 0.795818,0.912628 l 5.665718,5.665404 1.911012,1.913784 c 1.686001,1.686001 3.926835,2.614922 6.311841,2.614922 2.384997,0 4.625528,-0.928921 6.311833,-2.614922 l 7.579197,-7.579188 c 3.480516,-3.480525 3.480516,-9.143473 0,-12.623998"
       style="fill:#ffffff;fill-opacity:1;fill-rule:nonzero;stroke:none;stroke-width:0.0307384"
       id="path63" />
    <path
       d="m 82.809725,33.176367 -7.57673,-7.573655 c -0.902487,-0.902791 -1.96358,-1.590102 -3.123646,-2.028737 -1.004222,-0.387619 -2.08223,-0.588338 -3.188502,-0.588338 -2.385006,0 -4.625528,0.930761 -6.311842,2.617075 l -3.508181,3.505419 4.068235,4.068236 c 0.319681,0.319681 0.61108,0.659342 0.871432,1.010069 l 3.57612,-3.576119 c 0.359334,-0.362097 0.831786,-0.54038 1.304236,-0.54038 0.469681,0 0.942133,0.178283 1.304544,0.54038 l 7.576416,7.576731 c 0.71867,0.721433 0.71867,1.887042 0,2.608474 l -7.576416,7.576732 c -0.362411,0.359327 -0.834863,0.540378 -1.304544,0.540378 -0.47245,0 -0.944902,-0.181051 -1.304236,-0.540378 l -3.210947,-3.208489 c 0,-0.0026 -0.0035,-0.0026 -0.0035,-0.0052 L 64.037293,44.796468 60.03668,40.795856 c -0.327985,-0.33106 -0.509029,-0.755249 -0.534542,-1.182513 -0.379314,-0.398989 -0.761086,-0.792437 -1.134563,-1.174209 -0.05655,-0.0876 -0.127258,-0.172749 -0.206557,-0.251752 L 56.251253,36.28034 55.894688,35.921004 55.560866,35.58719 C 54.927341,34.947828 54.45489,34.478139 54.259399,34.288486 l -0.09898,-0.101745 h -0.0026 c -2.319839,3.140551 -2.317069,7.469148 0.0026,10.609698 0.260361,0.350727 0.548988,0.687312 0.86867,1.004222 l 4.07132,4.071321 1.703218,1.703217 1.804963,1.804963 c 1.686315,1.686315 3.926837,2.617075 6.311842,2.617075 2.385303,0 4.625833,-0.93076 6.312147,-2.617075 l 7.576731,-7.579501 c 3.479898,-3.479897 3.479898,-9.141007 0,-12.623989"
       style="fill:#ffffff;fill-opacity:1;fill-rule:nonzero;stroke:none;stroke-width:0.0307384"
       id="path65" />
    <g
       id="g67"
       transform="matrix(0.03073849,0,0,-0.03073849,-27.483659,113.65926)"
       style="fill:#ffffff">
      <g
         id="g69"
         clip-path="url(#clipPath73)"
         style="fill:#ffffff">
        <path
           d="m 3136.28,2719.37 c -15.37,0 -30.74,-5.8 -42.43,-17.58 l -116.34,-116.34 c -8.47,11.41 -17.95,22.46 -28.35,32.86 l -132.35,132.35 114.13,114.04 c 54.86,54.86 127.75,85.14 205.34,85.14 35.99,0 71.06,-6.53 103.73,-19.14 112.57,-110.36 -103.73,-211.33 -103.73,-211.33"
           style="fill:#ffffff;fill-opacity:1;fill-rule:nonzero;stroke:none"
           id="path83" />
      </g>
    </g>
    <path
       d="m 65.42834,11.781153 c 0.726654,-1.364794 2.23161,-2.2537488 3.920382,-2.0745428 1.912553,0.2031848 3.4255,1.8184858 3.514027,3.7399538 0.104508,2.266349 -1.701989,4.136165 -3.945282,4.136165 -1.18036,0 -2.240225,-0.518248 -2.963498,-1.340502 -0.497049,-0.564664 -1.279953,-0.781372 -1.982331,-0.512106 -0.0609,0.02335 -0.121724,0.0467 -0.182587,0.06979 -1.125639,0.431263 -1.510489,1.849226 -0.733421,2.771073 1.587646,1.883661 4.064551,2.994551 6.774457,2.679174 3.505418,-0.407903 6.319528,-3.237381 6.708984,-6.744639 0.512715,-4.6153851 -3.104277,-8.5394633 -7.621604,-8.5394633 -2.932765,0 -5.486514,1.6555749 -6.774771,4.0817623 -0.639048,1.204026 0.26681,2.655805 1.630063,2.666566 0.01323,0 0.0264,0 0.03999,3e-4 0.668246,0.0052 1.301467,-0.343652 1.615615,-0.933523"
       style="fill:#ffffff;fill-opacity:1;fill-rule:nonzero;stroke:none;stroke-width:0.0307384"
       id="path85" />
  </g>
</svg>
