<?xml version="1.0" encoding="UTF-8" standalone="no"?>
<!-- Created with Inkscape (http://www.inkscape.org/) -->

<svg
   width="141.746mm"
   height="85.651001mm"
   viewBox="0 0 141.746 85.651"
   version="1.1"
   id="svg1"
   xml:space="preserve"
   inkscape:version="1.3.2 (091e20e, 2023-11-25, custom)"
   sodipodi:docname="IcoElSilbon.svg"
   inkscape:export-filename="LogoElSilbon.webp"
   inkscape:export-xdpi="96"
   inkscape:export-ydpi="96"
   xmlns:inkscape="http://www.inkscape.org/namespaces/inkscape"
   xmlns:sodipodi="http://sodipodi.sourceforge.net/DTD/sodipodi-0.dtd"
   xmlns="http://www.w3.org/2000/svg"
   xmlns:svg="http://www.w3.org/2000/svg"><sodipodi:namedview
     id="namedview1"
     pagecolor="#ffffff"
     bordercolor="#000000"
     borderopacity="0.25"
     inkscape:showpageshadow="2"
     inkscape:pageopacity="0.0"
     inkscape:pagecheckerboard="0"
     inkscape:deskcolor="#d1d1d1"
     inkscape:document-units="mm"
     inkscape:zoom="0.53130024"
     inkscape:cx="189.15858"
     inkscape:cy="345.3791"
     inkscape:window-width="1920"
     inkscape:window-height="1009"
     inkscape:window-x="-8"
     inkscape:window-y="-8"
     inkscape:window-maximized="1"
     inkscape:current-layer="layer1"
     showgrid="false" /><defs
     id="defs1" /><g
     inkscape:label="Capa 1"
     inkscape:groupmode="layer"
     id="layer1"><path
       style="fill:#0098c8;fill-opacity:1;stroke-width:0.923255"
       d="M 33.3832,77.842189 C 19.64555,76.758343 8.9539785,65.232933 8.9557415,51.509631 8.9575885,40.27175 15.825609,30.361557 26.249345,26.557367 c 3.756015,-1.370789 4.94297,-1.563214 9.732679,-1.577903 l 4.430914,-0.01357 1.226093,-1.832089 c 3.450056,-5.155228 8.353142,-9.444921 13.724326,-12.007389 2.244489,-1.070791 4.634474,-2.0153088 4.755199,-1.8792394 0.04145,0.046717 -1.701394,5.9640254 -3.872973,13.1495914 l -3.948328,13.064675 -1.701209,0.445018 c -0.935654,0.244755 -2.144685,0.704582 -2.686719,1.021822 -1.418766,0.830376 -3.220231,2.855942 -3.978195,4.473116 -0.585926,1.250106 -0.654607,1.678967 -0.653961,4.083853 6.56e-4,2.435474 0.06361,2.815107 0.672038,4.054725 0.753718,1.535558 2.981237,3.805658 4.467973,4.553402 3.42344,1.721806 8.0476,1.141393 10.906756,-1.368966 l 0.879105,-0.771869 10.211257,-0.846449 10.211249,-0.84645 1.232804,1.383175 c 0.762701,0.855737 1.202669,1.561058 1.153774,1.849668 -0.04349,0.256572 -1.389462,5.863178 -2.991107,12.459135 -1.601635,6.595956 -2.912067,12.026857 -2.912067,12.06869 0,0.163379 -41.5422,-0.0055 -43.725753,-0.178115 z M 88.500916,66.724276 c 1.526888,-6.284699 2.776154,-11.51843 2.776154,-11.630522 0,-0.112102 0.150122,-0.203818 0.3336,-0.203818 0.183483,0 1.113103,-0.389983 2.065843,-0.866604 5.88329,-2.943292 7.174927,-10.834474 2.53315,-15.47625 -2.97892,-2.978911 -7.527097,-3.785513 -11.186668,-1.983909 -1.727863,0.850622 -4.030221,3.1501 -4.525538,4.519888 -0.192471,0.532266 -0.471978,0.860151 -0.73324,0.860151 -0.606404,0 -15.032875,1.17979 -16.282751,1.331592 -0.714267,0.08679 -1.074576,0.03121 -1.133397,-0.174717 -0.415751,-1.455641 -1.045854,-2.802513 -1.613573,-3.449115 L 60.053854,38.87577 64.729587,23.187878 69.405321,7.4999992 h 2.173795 c 4.382212,0 9.922898,1.2797148 14.205574,3.2810278 2.875552,1.343752 6.910633,4.081545 9.288593,6.302306 1.66786,1.557596 4.77184,5.376207 5.840177,7.184753 l 0.42455,0.718708 4.31315,-0.01043 c 4.70227,-0.01136 6.11525,0.214647 9.84098,1.574376 8.8384,3.225614 15.31369,11.002626 16.96275,20.372724 0.44553,2.531621 0.44744,6.681847 0.004,8.98319 -2.11534,10.980985 -9.98243,19.123727 -20.78474,21.513 -1.97645,0.437152 -3.39793,0.498641 -14.073997,0.608804 l -11.875516,0.122544 z"
       id="path1-4"
       sodipodi:nodetypes="scsscsssscssssssscccsssssscsscssssssscccsssscssscsscc"
       inkscape:export-filename="favicon.png"
       inkscape:export-xdpi="96"
       inkscape:export-ydpi="96" /></g></svg>
